<svg class="main-svg" xmlns="http://www.w3.org/2000/svg" xmlns:xlink="http://www.w3.org/1999/xlink" width="980" height="600" style="" viewBox="0 0 980 600"><rect x="0" y="0" width="980" height="600" style="fill: rgb(255, 255, 255); fill-opacity: 1;"/><defs id="defs-4d0c0b"><g class="clips"><clipPath id="clip4d0c0bxyplot" class="plotclip"><rect width="613" height="420"/></clipPath><clipPath class="axesclip" id="clip4d0c0bx"><rect x="252" y="0" width="613" height="600"/></clipPath><clipPath class="axesclip" id="clip4d0c0by"><rect x="0" y="100" width="980" height="420"/></clipPath><clipPath class="axesclip" id="clip4d0c0bxy"><rect x="252" y="100" width="613" height="420"/></clipPath></g><g class="gradients"><linearGradient x1="0" x2="0" y1="1" y2="0" id="g4d0c0b-cb84ca6c"><stop offset="0%" stop-color="rgb(0, 0, 131)" stop-opacity="1"/><stop offset="20%" stop-color="rgb(0, 60, 170)" stop-opacity="1"/><stop offset="40%" stop-color="rgb(5, 255, 255)" stop-opacity="1"/><stop offset="60%" stop-color="rgb(255, 255, 0)" stop-opacity="1"/><stop offset="80%" stop-color="rgb(250, 0, 0)" stop-opacity="1"/><stop offset="100%" stop-color="rgb(128, 0, 0)" stop-opacity="1"/></linearGradient></g><g class="patterns"/></defs><g class="bglayer"/><g class="layer-below"><g class="imagelayer"/><g class="shapelayer"/></g><g class="cartesianlayer"><g class="subplot xy"><g class="layer-subplot"><g class="shapelayer"/><g class="imagelayer"/></g><g class="gridlayer"><g class="x"><path class="xgrid crisp" transform="translate(312.94,0)" d="M0,100v420" style="stroke: rgb(201, 196, 195); stroke-opacity: 1; stroke-width: 1px;"/><path class="xgrid crisp" transform="translate(479.32,0)" d="M0,100v420" style="stroke: rgb(201, 196, 195); stroke-opacity: 1; stroke-width: 1px;"/><path class="xgrid crisp" transform="translate(645.7,0)" d="M0,100v420" style="stroke: rgb(201, 196, 195); stroke-opacity: 1; stroke-width: 1px;"/><path class="xgrid crisp" transform="translate(812.08,0)" d="M0,100v420" style="stroke: rgb(201, 196, 195); stroke-opacity: 1; stroke-width: 1px;"/></g><g class="y"><path class="ygrid crisp" transform="translate(0,482.74)" d="M252,0h613" style="stroke: rgb(201, 196, 195); stroke-opacity: 1; stroke-width: 1px;"/><path class="ygrid crisp" transform="translate(0,423.02)" d="M252,0h613" style="stroke: rgb(201, 196, 195); stroke-opacity: 1; stroke-width: 1px;"/><path class="ygrid crisp" transform="translate(0,363.3)" d="M252,0h613" style="stroke: rgb(201, 196, 195); stroke-opacity: 1; stroke-width: 1px;"/><path class="ygrid crisp" transform="translate(0,303.57)" d="M252,0h613" style="stroke: rgb(201, 196, 195); stroke-opacity: 1; stroke-width: 1px;"/><path class="ygrid crisp" transform="translate(0,243.85)" d="M252,0h613" style="stroke: rgb(201, 196, 195); stroke-opacity: 1; stroke-width: 1px;"/><path class="ygrid crisp" transform="translate(0,184.13)" d="M252,0h613" style="stroke: rgb(201, 196, 195); stroke-opacity: 1; stroke-width: 1px;"/><path class="ygrid crisp" transform="translate(0,124.41)" d="M252,0h613" style="stroke: rgb(201, 196, 195); stroke-opacity: 1; stroke-width: 1px;"/></g></g><g class="zerolinelayer"/><path class="xlines-below"/><path class="ylines-below"/><g class="overlines-below"/><g class="xaxislayer-below"/><g class="yaxislayer-below"/><g class="overaxes-below"/><g class="plot" transform="translate(252,100)" clip-path="url(#clip4d0c0bxyplot)"><g class="scatterlayer mlayer"><g class="trace scatter trace84ca6c" style="stroke-miterlimit: 2; opacity: 1;"><g class="fills"/><g class="errorbars"/><g class="lines"/><g class="points"><path class="point" transform="translate(60.94,382.74)" d="M13.01,0A13.01,13.01 0 1,1 0,-13.01A13.01,13.01 0 0,1 13.01,0Z" style="opacity: 0.7; stroke-width: 1px; fill: rgb(4, 222, 241); fill-opacity: 1; stroke: rgb(255, 255, 255); stroke-opacity: 1;"/><path class="point" transform="translate(60.94,323.02)" d="M24.23,0A24.23,24.23 0 1,1 0,-24.23A24.23,24.23 0 0,1 24.23,0Z" style="opacity: 0.7; stroke-width: 1px; fill: rgb(253, 150, 0); fill-opacity: 1; stroke: rgb(255, 255, 255); stroke-opacity: 1;"/><path class="point" transform="translate(60.94,263.3)" d="M0.02,0A0.02,0.02 0 1,1 0,-0.02A0.02,0.02 0 0,1 0.02,0Z" style="opacity: 0.7; stroke-width: 1px; fill: rgb(0, 0, 131); fill-opacity: 1; stroke: rgb(255, 255, 255); stroke-opacity: 1;"/><path class="point" transform="translate(60.94,203.57)" d="M10.87,0A10.87,10.87 0 1,1 0,-10.87A10.87,10.87 0 0,1 10.87,0Z" style="opacity: 0.7; stroke-width: 1px; fill: rgb(3, 163, 215); fill-opacity: 1; stroke: rgb(255, 255, 255); stroke-opacity: 1;"/><path class="point" transform="translate(60.94,143.85)" d="M0.06,0A0.06,0.06 0 1,1 0,-0.06A0.06,0.06 0 0,1 0.06,0Z" style="opacity: 0.7; stroke-width: 1px; fill: rgb(0, 0, 131); fill-opacity: 1; stroke: rgb(255, 255, 255); stroke-opacity: 1;"/><path class="point" transform="translate(60.94,84.13)" d="M1.76,0A1.76,1.76 0 1,1 0,-1.76A1.76,1.76 0 0,1 1.76,0Z" style="opacity: 0.7; stroke-width: 1px; fill: rgb(0, 15, 141); fill-opacity: 1; stroke: rgb(255, 255, 255); stroke-opacity: 1;"/><path class="point" transform="translate(60.94,24.41)" d="M0.07,0A0.07,0.07 0 1,1 0,-0.07A0.07,0.07 0 0,1 0.07,0Z" style="opacity: 0.7; stroke-width: 1px; fill: rgb(0, 1, 131); fill-opacity: 1; stroke: rgb(255, 255, 255); stroke-opacity: 1;"/><path class="point" transform="translate(227.32,382.74)" d="M0.18,0A0.18,0.18 0 1,1 0,-0.18A0.18,0.18 0 0,1 0.18,0Z" style="opacity: 0.7; stroke-width: 1px; fill: rgb(0, 1, 132); fill-opacity: 1; stroke: rgb(255, 255, 255); stroke-opacity: 1;"/><path class="point" transform="translate(227.32,323.02)" d="M13.31,0A13.31,13.31 0 1,1 0,-13.31A13.31,13.31 0 0,1 13.31,0Z" style="opacity: 0.7; stroke-width: 1px; fill: rgb(4, 230, 244); fill-opacity: 1; stroke: rgb(255, 255, 255); stroke-opacity: 1;"/><path class="point" transform="translate(227.32,263.3)" d="M1.8,0A1.8,1.8 0 1,1 0,-1.8A1.8,1.8 0 0,1 1.8,0Z" style="opacity: 0.7; stroke-width: 1px; fill: rgb(0, 15, 141); fill-opacity: 1; stroke: rgb(255, 255, 255); stroke-opacity: 1;"/><path class="point" transform="translate(227.32,203.57)" d="M28.57,0A28.57,28.57 0 1,1 0,-28.57A28.57,28.57 0 0,1 28.57,0Z" style="opacity: 0.7; stroke-width: 1px; fill: rgb(248, 0, 0); fill-opacity: 1; stroke: rgb(255, 255, 255); stroke-opacity: 1;"/><path class="point" transform="translate(227.32,143.85)" d="M3.04,0A3.04,3.04 0 1,1 0,-3.04A3.04,3.04 0 0,1 3.04,0Z" style="opacity: 0.7; stroke-width: 1px; fill: rgb(0, 26, 148); fill-opacity: 1; stroke: rgb(255, 255, 255); stroke-opacity: 1;"/><path class="point" transform="translate(227.32,84.13)" d="M0.41,0A0.41,0.41 0 1,1 0,-0.41A0.41,0.41 0 0,1 0.41,0Z" style="opacity: 0.7; stroke-width: 1px; fill: rgb(0, 3, 133); fill-opacity: 1; stroke: rgb(255, 255, 255); stroke-opacity: 1;"/><path class="point" transform="translate(227.32,24.41)" d="M2.72,0A2.72,2.72 0 1,1 0,-2.72A2.72,2.72 0 0,1 2.72,0Z" style="opacity: 0.7; stroke-width: 1px; fill: rgb(0, 23, 146); fill-opacity: 1; stroke: rgb(255, 255, 255); stroke-opacity: 1;"/><path class="point" transform="translate(393.7,382.74)" d="M4.07,0A4.07,4.07 0 1,1 0,-4.07A4.07,4.07 0 0,1 4.07,0Z" style="opacity: 0.7; stroke-width: 1px; fill: rgb(0, 34, 153); fill-opacity: 1; stroke: rgb(255, 255, 255); stroke-opacity: 1;"/><path class="point" transform="translate(393.7,323.02)" d="M4.17,0A4.17,4.17 0 1,1 0,-4.17A4.17,4.17 0 0,1 4.17,0Z" style="opacity: 0.7; stroke-width: 1px; fill: rgb(0, 35, 154); fill-opacity: 1; stroke: rgb(255, 255, 255); stroke-opacity: 1;"/><path class="point" transform="translate(393.7,263.3)" d="M0.37,0A0.37,0.37 0 1,1 0,-0.37A0.37,0.37 0 0,1 0.37,0Z" style="opacity: 0.7; stroke-width: 1px; fill: rgb(0, 3, 133); fill-opacity: 1; stroke: rgb(255, 255, 255); stroke-opacity: 1;"/><path class="point" transform="translate(393.7,203.57)" d="M35.53,0A35.53,35.53 0 1,1 0,-35.53A35.53,35.53 0 0,1 35.53,0Z" style="opacity: 0.7; stroke-width: 1px; fill: rgb(128, 0, 0); fill-opacity: 1; stroke: rgb(255, 255, 255); stroke-opacity: 1;"/><path class="point" transform="translate(393.7,143.85)" d="M0.08,0A0.08,0.08 0 1,1 0,-0.08A0.08,0.08 0 0,1 0.08,0Z" style="opacity: 0.7; stroke-width: 1px; fill: rgb(0, 1, 131); fill-opacity: 1; stroke: rgb(255, 255, 255); stroke-opacity: 1;"/><path class="point" transform="translate(393.7,84.13)" d="M5.78,0A5.78,5.78 0 1,1 0,-5.78A5.78,5.78 0 0,1 5.78,0Z" style="opacity: 0.7; stroke-width: 1px; fill: rgb(0, 49, 163); fill-opacity: 1; stroke: rgb(255, 255, 255); stroke-opacity: 1;"/><path class="point" transform="translate(393.7,24.41)" d="M0.02,0A0.02,0.02 0 1,1 0,-0.02A0.02,0.02 0 0,1 0.02,0Z" style="opacity: 0.7; stroke-width: 1px; fill: rgb(0, 0, 131); fill-opacity: 1; stroke: rgb(255, 255, 255); stroke-opacity: 1;"/><path class="point" transform="translate(560.08,382.74)" d="M0.09,0A0.09,0.09 0 1,1 0,-0.09A0.09,0.09 0 0,1 0.09,0Z" style="opacity: 0.7; stroke-width: 1px; fill: rgb(0, 1, 131); fill-opacity: 1; stroke: rgb(255, 255, 255); stroke-opacity: 1;"/><path class="point" transform="translate(560.08,323.02)" d="M17.82,0A17.82,17.82 0 1,1 0,-17.82A17.82,17.82 0 0,1 17.82,0Z" style="opacity: 0.7; stroke-width: 1px; fill: rgb(132, 255, 126); fill-opacity: 1; stroke: rgb(255, 255, 255); stroke-opacity: 1;"/><path class="point" transform="translate(560.08,263.3)" d="M0.01,0A0.01,0.01 0 1,1 0,-0.01A0.01,0.01 0 0,1 0.01,0Z" style="opacity: 0.7; stroke-width: 1px; fill: rgb(0, 0, 131); fill-opacity: 1; stroke: rgb(255, 255, 255); stroke-opacity: 1;"/><path class="point" transform="translate(560.08,203.57)" d="M16.77,0A16.77,16.77 0 1,1 0,-16.77A16.77,16.77 0 0,1 16.77,0Z" style="opacity: 0.7; stroke-width: 1px; fill: rgb(95, 255, 163); fill-opacity: 1; stroke: rgb(255, 255, 255); stroke-opacity: 1;"/><path class="point" transform="translate(560.08,143.85)" d="M4.11,0A4.11,4.11 0 1,1 0,-4.11A4.11,4.11 0 0,1 4.11,0Z" style="opacity: 0.7; stroke-width: 1px; fill: rgb(0, 35, 154); fill-opacity: 1; stroke: rgb(255, 255, 255); stroke-opacity: 1;"/><path class="point" transform="translate(560.08,84.13)" d="M8.49,0A8.49,8.49 0 1,1 0,-8.49A8.49,8.49 0 0,1 8.49,0Z" style="opacity: 0.7; stroke-width: 1px; fill: rgb(1, 98, 187); fill-opacity: 1; stroke: rgb(255, 255, 255); stroke-opacity: 1;"/><path class="point" transform="translate(560.08,24.41)" d="M2.73,0A2.73,2.73 0 1,1 0,-2.73A2.73,2.73 0 0,1 2.73,0Z" style="opacity: 0.7; stroke-width: 1px; fill: rgb(0, 23, 146); fill-opacity: 1; stroke: rgb(255, 255, 255); stroke-opacity: 1;"/></g><g class="text"/></g></g></g><g class="overplot"/><path class="xlines-above crisp" d="M252,520.05H865" style="fill: none; stroke-width: 0.1px; stroke: rgb(201, 196, 195); stroke-opacity: 1;"/><path class="ylines-above crisp" d="M0,0" style="fill: none;"/><g class="overlines-above"/><g class="xaxislayer-above"><g class="xtick"><text text-anchor="middle" x="0" y="536.9" transform="translate(312.94,0)" style="font-family: 'Open Sans', verdana, arial, sans-serif; font-size: 14px; fill: rgb(0, 0, 0); fill-opacity: 1; white-space: pre; opacity: 1;">China</text></g><g class="xtick"><text text-anchor="middle" x="0" y="536.9" transform="translate(479.32,0)" style="font-family: 'Open Sans', verdana, arial, sans-serif; font-size: 14px; fill: rgb(0, 0, 0); fill-opacity: 1; white-space: pre; opacity: 1;">Germany</text></g><g class="xtick"><text text-anchor="middle" x="0" y="536.9" transform="translate(645.7,0)" style="font-family: 'Open Sans', verdana, arial, sans-serif; font-size: 14px; fill: rgb(0, 0, 0); fill-opacity: 1; white-space: pre; opacity: 1;">Japan</text></g><g class="xtick"><text text-anchor="middle" x="0" y="536.9" transform="translate(812.08,0)" style="font-family: 'Open Sans', verdana, arial, sans-serif; font-size: 14px; fill: rgb(0, 0, 0); fill-opacity: 1; white-space: pre; opacity: 1;">United States</text></g></g><g class="yaxislayer-above"><g class="ytick"><text text-anchor="end" x="251" y="4.8999999999999995" transform="translate(0,482.74)" style="font-family: 'Open Sans', verdana, arial, sans-serif; font-size: 14px; fill: rgb(0, 0, 0); fill-opacity: 1; white-space: pre; opacity: 1;">Coal</text></g><g class="ytick"><text text-anchor="end" x="251" y="4.8999999999999995" transform="translate(0,423.02)" style="font-family: 'Open Sans', verdana, arial, sans-serif; font-size: 14px; fill: rgb(0, 0, 0); fill-opacity: 1; white-space: pre; opacity: 1;">Electricity</text></g><g class="ytick"><text text-anchor="end" x="251" y="4.8999999999999995" transform="translate(0,363.3)" style="font-family: 'Open Sans', verdana, arial, sans-serif; font-size: 14px; fill: rgb(0, 0, 0); fill-opacity: 1; white-space: pre; opacity: 1;">Fuel oil</text></g><g class="ytick"><text text-anchor="end" x="251" y="4.8999999999999995" transform="translate(0,303.57)" style="font-family: 'Open Sans', verdana, arial, sans-serif; font-size: 14px; fill: rgb(0, 0, 0); fill-opacity: 1; white-space: pre; opacity: 1;">Gas-Diesel oil</text></g><g class="ytick"><text text-anchor="end" x="251" y="4.8999999999999995" transform="translate(0,243.85)" style="font-family: 'Open Sans', verdana, arial, sans-serif; font-size: 14px; fill: rgb(0, 0, 0); fill-opacity: 1; white-space: pre; opacity: 1;">Liquefied petroleum gas (LPG)</text></g><g class="ytick"><text text-anchor="end" x="251" y="4.8999999999999995" transform="translate(0,184.13)" style="font-family: 'Open Sans', verdana, arial, sans-serif; font-size: 14px; fill: rgb(0, 0, 0); fill-opacity: 1; white-space: pre; opacity: 1;">Motor Gasoline</text></g><g class="ytick"><text text-anchor="end" x="251" y="4.8999999999999995" transform="translate(0,124.41)" style="font-family: 'Open Sans', verdana, arial, sans-serif; font-size: 14px; fill: rgb(0, 0, 0); fill-opacity: 1; white-space: pre; opacity: 1;">Natural gas (including LNG)</text></g></g><g class="overaxes-above"/></g></g><g class="polarlayer"/><g class="smithlayer"/><g class="ternarylayer"/><g class="geolayer"/><g class="funnelarealayer"/><g class="pielayer"/><g class="iciclelayer"/><g class="treemaplayer"/><g class="sunburstlayer"/><g class="glimages"/><defs id="topdefs-4d0c0b"><g class="clips"/></defs><g class="layer-above"><g class="imagelayer"/><g class="shapelayer"/></g><g class="infolayer"><g class="cb84ca6c colorbar" transform="translate(252,100)"><rect class="cbbg" x="625" y="0" width="90.359375" height="420" style="fill: rgb(0, 0, 0); fill-opacity: 0; stroke: rgb(68, 68, 68); stroke-opacity: 1; stroke-width: 0;"/><g class="cbfills" transform="translate(0,50)"><rect class="cbfill" x="635" width="30" y="0" height="360" style="fill: url('#g4d0c0b-cb84ca6c');"/></g><g class="cblines" transform="translate(0,50)"/><g class="cbaxis crisp" transform="translate(0,-100)"><g class="ycb84ca6ctick"><text text-anchor="start" x="667.9" y="4.199999999999999" transform="translate(0,459.40312500000005)" style="font-family: 'Open Sans', verdana, arial, sans-serif; font-size: 12px; fill: rgb(0, 0, 0); fill-opacity: 1; white-space: pre; opacity: 1;">10</text></g><g class="ycb84ca6ctick"><text text-anchor="start" x="667.9" y="4.199999999999999" style="font-family: 'Open Sans', verdana, arial, sans-serif; font-size: 12px; fill: rgb(0, 0, 0); fill-opacity: 1; white-space: pre; opacity: 1;" transform="translate(0,408.75312500000007)">20</text></g><g class="ycb84ca6ctick"><text text-anchor="start" x="667.9" y="4.199999999999999" style="font-family: 'Open Sans', verdana, arial, sans-serif; font-size: 12px; fill: rgb(0, 0, 0); fill-opacity: 1; white-space: pre; opacity: 1;" transform="translate(0,358.113125)">30</text></g><g class="ycb84ca6ctick"><text text-anchor="start" x="667.9" y="4.199999999999999" style="font-family: 'Open Sans', verdana, arial, sans-serif; font-size: 12px; fill: rgb(0, 0, 0); fill-opacity: 1; white-space: pre; opacity: 1;" transform="translate(0,307.463125)">40</text></g><g class="ycb84ca6ctick"><text text-anchor="start" x="667.9" y="4.199999999999999" style="font-family: 'Open Sans', verdana, arial, sans-serif; font-size: 12px; fill: rgb(0, 0, 0); fill-opacity: 1; white-space: pre; opacity: 1;" transform="translate(0,256.813125)">50</text></g><g class="ycb84ca6ctick"><text text-anchor="start" x="667.9" y="4.199999999999999" style="font-family: 'Open Sans', verdana, arial, sans-serif; font-size: 12px; fill: rgb(0, 0, 0); fill-opacity: 1; white-space: pre; opacity: 1;" transform="translate(0,206.17312500000003)">60</text></g><g class="ycb84ca6ctick"><text text-anchor="start" x="667.9" y="4.199999999999999" style="font-family: 'Open Sans', verdana, arial, sans-serif; font-size: 12px; fill: rgb(0, 0, 0); fill-opacity: 1; white-space: pre; opacity: 1;" transform="translate(0,155.52312500000002)">70</text></g></g><g class="cbtitleunshift" transform="translate(-252,-100)"><g class="cbtitle" transform=""><text class="ycb84ca6ctitle" x="887.26" y="123.50000000000001" text-anchor="start" style="font-family: 'Open Sans', verdana, arial, sans-serif; font-size: 14px; fill: rgb(0, 0, 0); opacity: 1; font-weight: normal; white-space: pre;"><tspan class="line" dy="0em" x="887.26" y="123.50000000000001">%CO2</tspan><tspan class="line" dy="1.3em" x="887.26" y="123.50000000000001">Emissions</tspan></text></g></g><rect class="cboutline" x="635" y="50.203125" width="30" height="359.796875" style="stroke: rgb(68, 68, 68); stroke-opacity: 1; fill: none; stroke-width: 0;"/></g><g class="g-gtitle"><text class="gtitle" x="490" y="50" text-anchor="middle" dy="0em" style="font-family: 'Open Sans', verdana, arial, sans-serif; font-size: 17px; fill: rgb(0, 0, 0); opacity: 1; font-weight: normal; white-space: pre;"><tspan class="line" dy="0em" x="490" y="50"><tspan style="font-weight:bold">CO2 Emissions in 2019</tspan></tspan><tspan class="line" dy="1.3em" x="490" y="50">​<tspan style="font-size:70%" dy="-0.6em">Per Top 4 Countries and Energy Industries</tspan><tspan dy="0.42em">​</tspan></tspan></text></g><g class="g-xtitle"/><g class="g-ytitle"/></g></svg>